<svg width="42" height="42" viewBox="0 0 42 42" fill="none" xmlns="http://www.w3.org/2000/svg">
<path d="M21 0C32.598 0 42 9.40202 42 21C42 32.598 32.598 42 21 42C9.40202 42 0 32.598 0 21C0 9.40202 9.40202 0 21 0ZM21.1641 5.87793C17.4219 5.94928 14.1257 7.1692 11.2588 9.61133C4.85183 15.0715 4.28248 25.2436 10.0684 31.3809C14.3497 35.9228 20.7104 37.4303 26.5977 35.1963C31.4781 33.346 34.5253 29.7745 35.8877 24.7666C36.402 22.8808 35.4503 21.3509 33.6338 20.9014C32.0061 20.4985 30.4764 21.5404 30.0059 23.333C29.4532 25.4409 28.2553 27.1133 26.499 28.3906C22.7348 31.1315 17.4005 30.4846 14.3174 26.916C11.2808 23.4047 11.4915 17.9498 14.8428 14.6797C17.3239 12.2596 20.2889 11.4672 23.6699 12.2783C25.6723 12.758 27.2159 11.9112 27.6455 10.0996C28.0449 8.41111 26.9968 6.88345 25.0928 6.38184C23.8071 6.042 22.5019 5.88379 21.167 5.88379L21.1641 5.87793ZM35.4668 14.2051C35.4778 11.7459 32.9366 10.139 30.7617 11.3438C27.1002 13.3728 23.4884 15.493 19.8848 17.624C18.3789 18.5145 17.9714 20.3967 18.833 21.9268C19.6452 23.3741 21.5422 24.0385 23.0068 23.2197C26.7095 21.1494 30.3736 19.0071 34.0322 16.8623C35.015 16.2861 35.4448 15.3354 35.4668 14.2051Z" fill="#8CC63F"/>
</svg>
