<svg width="443" height="443" viewBox="0 0 443 443" fill="none" xmlns="http://www.w3.org/2000/svg">
<path fill-rule="evenodd" clip-rule="evenodd" d="M221.5 443C343.831 443 443 343.831 443 221.5C443 99.1689 343.831 0 221.5 0C99.1689 0 0 99.1689 0 221.5C0 343.831 99.1689 443 221.5 443ZM264.675 67.3198C251.113 63.7346 237.349 62.0579 223.268 62.0579L223.239 62C183.765 62.7517 148.995 75.6174 118.754 101.378C51.1758 158.97 45.1738 266.262 106.202 330.996C151.36 378.903 218.449 394.804 280.545 371.241C332.022 351.726 364.167 314.053 378.537 261.231C383.961 241.34 373.92 225.207 354.76 220.466C337.591 216.216 321.461 227.202 316.498 246.111C310.669 268.344 298.031 285.98 279.506 299.453C239.801 328.365 183.534 321.542 151.014 283.898C118.985 246.862 121.207 189.328 156.555 154.836C182.726 129.307 214.005 120.951 249.67 129.509C270.792 134.569 287.066 125.635 291.596 106.524C295.809 88.7146 284.758 72.6106 264.675 67.3198ZM358.964 177.862C369.331 171.785 373.861 161.753 374.093 149.831C374.209 123.892 347.407 106.939 324.467 119.647C285.846 141.049 247.749 163.41 209.738 185.888C193.854 195.281 189.556 215.141 198.645 231.28C207.211 246.546 227.219 253.554 242.667 244.918C281.723 223.08 320.373 200.486 358.964 177.862Z" fill="#8CC63F"/>
</svg>
